<?xml version="1.0" encoding="UTF-8"?>
<!-- Created with Inkscape (http://www.inkscape.org/) -->
<svg width="209.87mm" height="209.87mm" version="1.1" viewBox="0 0 209.87 209.87" xmlns="http://www.w3.org/2000/svg" xmlns:xlink="http://www.w3.org/1999/xlink">
 <g transform="translate(337.95 -236.15)">
  <text x="74.992439" y="25.21719" fill="#2c2c2c" font-family="Cormorant" font-size="46.447px" stroke-width="1.4515" style="font-variant-caps:normal;font-variant-east-asian:normal;font-variant-ligatures:normal;font-variant-numeric:normal;line-height:1.25" xml:space="preserve"><tspan x="74.992439" y="25.21719" fill="#2c2c2c" font-family="Cormorant" font-size="46.447px" stroke-width="1.4515" style="font-variant-caps:normal;font-variant-east-asian:normal;font-variant-ligatures:normal;font-variant-numeric:normal">The</tspan></text>
  <g fill="#ab3219" fill-opacity=".99658" stroke="#242424" stroke-width=".2903">
   <path d="m56.893 53.296c-5.3027 0-9.1926-1.3934-11.67-4.1802-2.4385-2.8255-4.1544-6.3408-4.1544-10.56 0-1.1999 0.13545-2.6126 0.40639-4.2383 0.658-3.7545 4.1222-27.536 5.7138-30.748 1.6158-3.2609 6.0795-7.0614 9.1373-8.5709 3.0578-1.5095 6.2123-2.2643 9.4636-2.2643 1.5869 0 3.1932 0.17418 4.8189 0.52253 1.6256 0.34835 2.8836 0.77412 3.7738 1.2773 0.23222 0.15481 0.36772 0.30962 0.40639 0.46449 0.07741 0.15481 0.09677 0.44512 0.05804 0.87088l-0.81282 7.3735c-0.03895 0.11614-0.15481 0.17418-0.34835 0.17418-0.15481 0-0.25158-0.058041-0.29031-0.17418-0.5419-2.9416-1.6837-5.1866-3.4255-6.7348-1.7031-1.5482-3.8706-2.3223-6.5026-2.3223-3.4835 0-8.4151 3.8867-10.124 6.1905-4.558 6.1437-5.4428 27.38-6.1782 32.141-0.23222 1.6256-0.34835 3.2126-0.34835 4.7608 0 2.8255 0.88368 5.3731 1.6578 7.6568 0.81282 2.2836 1.974 4.0835 3.4835 5.3995 1.5095 1.2773 3.2706 1.9159 5.2833 1.9159 4.1415 0 8.225-2.9223 12.25-8.7669 0.03895-0.07741 0.11608-0.11614 0.23222-0.11614s0.21291 0.03895 0.29031 0.11614c0.11614 0.03895 0.15481 0.09677 0.11614 0.17418l-1.6256 6.5606c-0.11614 0.46449-0.23222 0.79347-0.34835 0.987-0.11614 0.15481-0.34835 0.27095-0.69671 0.34835-3.4835 1.1612-7.0057 1.7418-10.567 1.7418z"/>
   <path d="m98.172 48.013q0.05804-0.05804 0.17418-0.05804 0.17418 0 0.29031 0.23222 0.11614 0.17418 0 0.34835-2.0901 2.3804-3.7738 3.4835-1.6256 1.1031-3.2513 1.1031-1.2773 0-1.8579-0.69671-0.58059-0.6967-0.58059-2.2062 0-1.1031 0.23222-2.2643l0.987-5.8639q-2.0321 5.3414-4.7608 8.3024-2.6707 2.961-5.6898 2.961-3.948 0-3.948-4.6447 0-1.5676 0.29031-3.0191l2.0901-10.334q0.17418-0.87088 0.17418-1.4515 0-1.5095-0.987-1.5095-0.58059 0-1.3934 0.58059t-1.9159 1.6837q-0.11614 0.11614-0.23222 0.11614-0.17418 0-0.29031-0.17418-0.11614-0.23222 0.05804-0.40639 2.0321-2.3804 3.4835-3.4255 1.5095-1.1031 3.0771-1.1031 2.5546 0 2.5546 3.1352 0 0.92894-0.29031 2.5546l-1.8579 9.2313q-0.34835 1.6256-0.34835 2.7868 0 3.0191 2.0901 3.0191 1.7418 0 3.5996-2.2643 1.8579-2.2643 3.4835-6.6187 1.6837-4.3544 2.7288-10.334l0.05804-0.40639q0.29031-1.0451 2.7868-1.0451 1.7418 0 1.7418 0.40639l-0.23222 1.2773q-0.58059 2.7288-0.63864 3.0771l-2.3804 12.947q-0.11614 0.52253-0.11614 1.3354 0 1.6837 1.0451 1.6837 1.2773 0 3.5996-2.4385z"/>
   <path d="m117.22 30.247q0.4064 0 0.4064 0.52253 0 0.46449-0.63865 1.3354-0.63864 0.81283-1.2192 0.81283-0.23221 0-2.032-0.29031-1.7998-0.29031-3.8899-0.34835l-2.4965 13.992q-0.17418 0.75476-0.17418 1.4515 0 2.7288 2.961 2.7288 2.3224 0 5.1092-2.3223h0.058q0.23222 0 0.4064 0.17418 0.17417 0.17418 0 0.34835-2.6707 2.4965-4.7028 3.5996-1.974 1.0451-3.948 1.0451-4.4125 0-4.4125-4.0061 0-0.81282 0.17418-1.7418l2.3224-12.715q0.17417-1.0451 0.17417-1.6837 0-0.87088-0.46449-1.1612-0.40639-0.29031-1.6837-0.29031-0.17418 0-0.17418-0.34835 0-0.46449 0.17418-0.46449 2.3804 0 4.0641-1.3354 1.6837-1.3934 2.6707-3.5996 0.058-0.11614 0.40639-0.11614 0.23222 0 0.46449 0.11614 0.23222 0.05804 0.17418 0.11614l-0.81283 4.6447q1.5095-0.05804 2.7288-0.11614 1.2192-0.11614 2.1482-0.17418 1.4515-0.17418 2.2062-0.17418z"/>
   <path d="m134.57 30.247q0.40639 0 0.40639 0.52253 0 0.46449-0.63864 1.3354-0.63865 0.81283-1.2192 0.81283-0.23222 0-2.032-0.29031-1.7998-0.29031-3.8899-0.34835l-2.4965 13.992q-0.17417 0.75476-0.17417 1.4515 0 2.7288 2.961 2.7288 2.3224 0 5.1092-2.3223h0.058q0.23222 0 0.40639 0.17418 0.17418 0.17418 0 0.34835-2.6707 2.4965-4.7028 3.5996-1.974 1.0451-3.948 1.0451-4.4124 0-4.4124-4.0061 0-0.81282 0.17417-1.7418l2.3224-12.715q0.17418-1.0451 0.17418-1.6837 0-0.87088-0.46449-1.1612-0.4064-0.29031-1.6837-0.29031-0.17417 0-0.17417-0.34835 0-0.46449 0.17417-0.46449 2.3804 0 4.0641-1.3354 1.6837-1.3934 2.6707-3.5996 0.0581-0.11614 0.4064-0.11614 0.23222 0 0.46449 0.11614 0.23222 0.05804 0.17417 0.11614l-0.81282 4.6447q1.5095-0.05804 2.7288-0.11614 1.2192-0.11614 2.1482-0.17418 1.4515-0.17418 2.2062-0.17418z"/>
   <path d="m145.01 29.07c-0.96765 0-1.7224-0.27095-2.2643-0.81282-0.5419-0.5419-0.81282-1.2966-0.81282-2.2643 0-0.85152 0.27094-1.5289 0.81282-2.0321 0.58058-0.5419 1.3354-0.81282 2.2643-0.81282 0.92893 0 1.645 0.27095 2.1482 0.81282 0.50316 0.50316 0.75476 1.1805 0.75476 2.0321 0 0.96765-0.25158 1.7224-0.75476 2.2643-0.50317 0.5419-1.2192 0.81282-2.1482 0.81282zm-4.2206 24.052c-1.703 0-2.5546-1.0064-2.5546-3.0191 0-0.73541 0.11614-1.6256 0.34835-2.6707l2.3804-12.076c0.11614-0.5419 0.17418-1.0064 0.17418-1.3934 0-1.0838-0.36772-1.6256-1.1031-1.6256-0.92894 0-2.1095 0.81282-3.5416 2.4385-0.0389 0.03895-0.0968 0.05804-0.17418 0.05804-0.15481 0-0.27094-0.05804-0.34835-0.17418-0.0774-0.15481-0.0774-0.29026 0-0.40639 1.3934-1.5869 2.632-2.7481 3.7158-3.4835 1.1225-0.73541 2.2062-1.1031 3.2513-1.1031 1.703 0 2.5546 0.94829 2.5546 2.8449 0 0.58059-0.0968 1.3547-0.29031 2.3223l-2.3804 12.599c-0.11613 0.58059-0.17417 1.0644-0.17417 1.4515 0 1.0064 0.32899 1.5095 0.987 1.5095 0.65799 0 1.7805-0.73541 3.3674-2.2062 0.0774-0.07741 0.15481-0.11614 0.23222-0.11614 0.11613 0 0.2129 0.07741 0.29031 0.23222 0.0774 0.11614 0.0581 0.23222-0.058 0.34835-1.316 1.5482-2.4965 2.6901-3.5416 3.4255-1.045 0.69671-2.0901 1.0451-3.1352 1.0451z"/>
   <path d="m174.69 48.129q0.11613-0.11614 0.17417-0.11614 0.17418 0 0.29032 0.23222 0.17417 0.17418 0 0.34835-1.974 2.3223-3.4835 3.4255-1.5095 1.1031-3.1352 1.1031-1.2773 0-1.9159-0.75476-0.58059-0.75476-0.58059-2.2643 0-0.92894 0.29031-2.6707l1.6837-9.2313q0.29031-1.3934 0.29031-2.7868 0-3.019-2.032-3.019-1.7418 0-3.5996 2.2062-1.7998 2.2062-3.4255 6.4445-1.6256 4.1802-2.6707 10.044l-0.17417 0.92894q-0.29032 1.0451-2.7868 1.0451-1.7418 0-1.7418-0.40639l0.23222-1.2773q0.58059-2.7288 0.63865-3.0771l2.3804-12.947q0.11613-0.52253 0.11613-1.3354 0-1.6837-1.0451-1.6837-1.2773 0-3.5416 2.4385-0.058 0.05804-0.17417 0.05804-0.17418 0-0.34836-0.17418-0.11613-0.23222 0.058-0.40639 2.0321-2.3804 3.6577-3.4835 1.6837-1.1031 3.3094-1.1031 1.2773 0 1.8579 0.75476 0.63865 0.6967 0.63865 2.2062 0 0.46449-0.23222 2.2062l-1.045 5.8059q2.032-5.3414 4.7608-8.2443 2.7288-2.961 5.7478-2.961 3.8899 0 3.8899 4.7028 0 1.1031-0.29031 2.961l-1.9159 10.334q-0.17417 0.87088-0.17417 1.4515 0 1.5095 0.98699 1.5095 1.0451 0 3.3094-2.2643z"/>
   <path d="m198.9 28.969c0.0774-0.07741 0.15481-0.11614 0.23222-0.11614 0.11614 0 0.23222 0.03895 0.34835 0.11614 0.11614 0.03895 0.15482 0.07741 0.11614 0.11614l-6.8861 35.904c-0.81282 4.4125-6.7345 24.65-9.0568 27.049-2.3224 2.3998-5.2059 3.5996-8.6508 3.5996-1.974 0-3.5803-0.38703-4.8189-1.1612-1.2386-0.77411-1.8579-1.7805-1.8579-3.019 0-0.92894 0.27095-1.6256 0.81282-2.0901 0.50317-0.46449 1.1225-0.69671 1.8579-0.69671 0.69671 0 1.1805 0.19354 1.4515 0.58059 0.30968 0.42576 0.59995 1.0644 0.87088 1.9159 0.30968 1.0451 0.69672 1.8385 1.1612 2.3804 0.46449 0.58059 1.2966 0.87088 2.4965 0.87088 1.4708 0 2.7675-0.79347 3.8899-2.3804s6.4442-21.379 7.257-25.714l4.5638-23.537c-1.5482 3.2513-3.3868 5.8252-5.5156 7.7218-2.0901 1.8966-4.1222 2.8449-6.0962 2.8449-1.1999 0-2.1288-0.34835-2.7868-1.0451-0.658-0.73541-0.987-1.8385-0.987-3.3093 0-2.6707 0.83218-5.5349 2.4965-8.5927 1.703-3.0965 3.7932-5.6898 6.2703-7.7799 2.5159-2.1288 4.8963-3.1932 7.1412-3.1932 0.73541 0 1.4515 0.13545 2.1482 0.40639 0.73541 0.23222 1.3547 0.59994 1.8579 1.1031 0.77412-0.658 1.3354-1.316 1.6837-1.974zm-14.631 20.611c1.3934 0 2.8255-0.79347 4.2964-2.3804 1.5095-1.5869 2.7675-3.4835 3.7738-5.6898 1.0064-2.2062 1.5095-4.1028 1.5095-5.6898 0-1.1999-0.29032-2.1288-0.87089-2.7868-0.58058-0.6967-1.4128-1.0451-2.4965-1.0451-1.2386 0-2.4385 0.50316-3.5996 1.5095-1.1612 0.96764-2.1675 2.3223-3.019 4.0641-0.81282 1.7031-1.3934 3.619-1.7418 5.7478-0.15481 0.92894-0.23221 1.8192-0.23221 2.6707 0 2.3998 0.79346 3.5996 2.3804 3.5996z"/>
  </g>
  <text x="94.758057" y="89.382935" fill="#2c2c2c" font-family="Cormorant" font-size="46.447px" stroke-width="1.4515" style="font-variant-caps:normal;font-variant-east-asian:normal;font-variant-ligatures:normal;font-variant-numeric:normal;line-height:1.25" xml:space="preserve"><tspan x="94.758057" y="89.382935" fill="#2c2c2c" font-family="Cormorant" font-size="46.447px" stroke-width="1.4515" style="font-variant-caps:normal;font-variant-east-asian:normal;font-variant-ligatures:normal;font-variant-numeric:normal">Slab</tspan></text>
  <text x="-40.311657" y="205.62964" fill="#2c2c2c" font-family="Cormorant" font-size="46.447px" stroke-width="1.4515" style="font-variant-caps:normal;font-variant-east-asian:normal;font-variant-ligatures:normal;font-variant-numeric:normal;line-height:1.25" xml:space="preserve"><tspan x="-40.311657" y="205.62964" fill="#2c2c2c" font-family="Cormorant" font-size="46.447px" stroke-width="1.4515" style="font-variant-caps:normal;font-variant-east-asian:normal;font-variant-ligatures:normal;font-variant-numeric:normal">The</tspan></text>
  <g fill="#ab3219" fill-opacity=".99658" stroke="#242424" stroke-width=".2903">
   <path d="m42.869 206.03c-5.3027 0-9.1926-1.3934-11.67-4.1802-2.4385-2.8255-4.1544-6.3408-4.1544-10.56 0-1.1999 0.13545-2.6126 0.40639-4.2383 0.658-3.7545 4.1222-27.536 5.7138-30.748 1.6158-3.2609 6.0795-7.0614 9.1373-8.5709 3.0578-1.5095 6.2123-2.2643 9.4636-2.2643 1.5869 0 3.1932 0.17418 4.8189 0.52253 1.6256 0.34836 2.8836 0.77412 3.7738 1.2773 0.23222 0.15481 0.36772 0.30962 0.40639 0.46449 0.07741 0.15481 0.09677 0.44512 0.05804 0.87088l-0.81282 7.3734c-0.03895 0.11614-0.15481 0.17418-0.34835 0.17418-0.15481 0-0.25158-0.058-0.29031-0.17418-0.5419-2.9416-1.6837-5.1866-3.4255-6.7348-1.7031-1.5482-3.8706-2.3224-6.5026-2.3224-3.4835 0-8.4151 3.8867-10.124 6.1905-4.558 6.1437-5.4428 27.38-6.1782 32.141-0.23222 1.6256-0.34835 3.2126-0.34835 4.7608 0 2.8255 0.88368 5.3732 1.6578 7.6568 0.81282 2.2836 1.974 4.0835 3.4835 5.3995 1.5095 1.2773 3.2706 1.9159 5.2833 1.9159 4.1415 0 8.225-2.9223 12.25-8.7669 0.03895-0.0774 0.11608-0.11613 0.23222-0.11613s0.21291 0.0389 0.29031 0.11613c0.11614 0.0389 0.15481 0.0968 0.11614 0.17418l-1.6256 6.5606c-0.11614 0.46449-0.23222 0.79347-0.34835 0.987-0.11614 0.15481-0.34835 0.27095-0.69671 0.34835-3.4835 1.1612-7.0057 1.7418-10.567 1.7418z"/>
   <path d="m84.148 200.74q0.05804-0.058 0.17418-0.058 0.17418 0 0.29031 0.23222 0.11614 0.17418 0 0.34835-2.0901 2.3804-3.7738 3.4835-1.6256 1.1031-3.2513 1.1031-1.2773 0-1.8579-0.6967-0.58059-0.69671-0.58059-2.2062 0-1.1031 0.23222-2.2643l0.987-5.8639q-2.0321 5.3414-4.7608 8.3024-2.6707 2.961-5.6898 2.961-3.948 0-3.948-4.6447 0-1.5676 0.29031-3.0191l2.0901-10.334q0.17418-0.87088 0.17418-1.4515 0-1.5095-0.987-1.5095-0.58059 0-1.3934 0.58059t-1.9159 1.6837q-0.11614 0.11614-0.23222 0.11614-0.17418 0-0.29031-0.17418-0.11614-0.23221 0.05804-0.40639 2.0321-2.3804 3.4835-3.4255 1.5095-1.1031 3.0771-1.1031 2.5546 0 2.5546 3.1352 0 0.92894-0.29031 2.5546l-1.8579 9.2313q-0.34835 1.6256-0.34835 2.7868 0 3.019 2.0901 3.019 1.7418 0 3.5996-2.2643 1.8579-2.2643 3.4835-6.6187 1.6837-4.3544 2.7288-10.334l0.05804-0.40639q0.29031-1.0451 2.7868-1.0451 1.7418 0 1.7418 0.4064l-0.23222 1.2773q-0.58059 2.7288-0.63864 3.0771l-2.3804 12.947q-0.11614 0.52253-0.11614 1.3354 0 1.6837 1.0451 1.6837 1.2773 0 3.5996-2.4385z"/>
   <path d="m103.19 182.98q0.4064 0 0.4064 0.52253 0 0.46449-0.63865 1.3354-0.63864 0.81283-1.2192 0.81283-0.23221 0-2.0321-0.29031-1.7998-0.29032-3.8899-0.34836l-2.4965 13.992q-0.17418 0.75476-0.17418 1.4515 0 2.7288 2.961 2.7288 2.3223 0 5.1092-2.3224h0.058q0.23222 0 0.4064 0.17418 0.17417 0.17417 0 0.34835-2.6707 2.4965-4.7028 3.5996-1.974 1.0451-3.948 1.0451-4.4125 0-4.4125-4.006 0-0.81283 0.17418-1.7418l2.3223-12.715q0.17418-1.0451 0.17418-1.6837 0-0.87089-0.46449-1.1612-0.40639-0.29031-1.6837-0.29031-0.17418 0-0.17418-0.34835 0-0.46449 0.17418-0.46449 2.3804 0 4.0641-1.3354 1.6837-1.3934 2.6707-3.5996 0.05804-0.11614 0.40639-0.11614 0.23222 0 0.46449 0.11614 0.23222 0.058 0.17418 0.11614l-0.81283 4.6447q1.5095-0.058 2.7288-0.11613 1.2192-0.11614 2.1482-0.17418 1.4515-0.17418 2.2062-0.17418z"/>
   <path d="m120.55 182.98q0.40639 0 0.40639 0.52253 0 0.46449-0.63864 1.3354-0.63865 0.81283-1.2192 0.81283-0.23222 0-2.032-0.29031-1.7998-0.29032-3.8899-0.34836l-2.4965 13.992q-0.17417 0.75476-0.17417 1.4515 0 2.7288 2.961 2.7288 2.3224 0 5.1092-2.3224h0.058q0.23222 0 0.40639 0.17418 0.17418 0.17417 0 0.34835-2.6707 2.4965-4.7028 3.5996-1.974 1.0451-3.948 1.0451-4.4124 0-4.4124-4.006 0-0.81283 0.17417-1.7418l2.3224-12.715q0.17418-1.0451 0.17418-1.6837 0-0.87089-0.46449-1.1612-0.4064-0.29031-1.6837-0.29031-0.17417 0-0.17417-0.34835 0-0.46449 0.17417-0.46449 2.3804 0 4.0641-1.3354 1.6837-1.3934 2.6707-3.5996 0.058-0.11614 0.4064-0.11614 0.23222 0 0.46449 0.11614 0.23222 0.058 0.17417 0.11614l-0.81282 4.6447q1.5095-0.058 2.7288-0.11613 1.2192-0.11614 2.1482-0.17418 1.4515-0.17418 2.2062-0.17418z"/>
   <path d="m130.98 181.8c-0.96765 0-1.7224-0.27095-2.2643-0.81282-0.5419-0.5419-0.81282-1.2966-0.81282-2.2643 0-0.85153 0.27094-1.5289 0.81282-2.032 0.58058-0.5419 1.3354-0.81283 2.2643-0.81283 0.92893 0 1.645 0.27095 2.1482 0.81283 0.50316 0.50316 0.75476 1.1805 0.75476 2.032 0 0.96765-0.25158 1.7224-0.75476 2.2643-0.50317 0.54189-1.2192 0.81282-2.1482 0.81282zm-4.2206 24.052c-1.703 0-2.5546-1.0064-2.5546-3.019 0-0.73541 0.11614-1.6256 0.34835-2.6707l2.3804-12.076c0.11614-0.5419 0.17418-1.0064 0.17418-1.3934 0-1.0838-0.36772-1.6256-1.1031-1.6256-0.92894 0-2.1095 0.81282-3.5416 2.4385-0.0389 0.0389-0.0968 0.058-0.17418 0.058-0.15481 0-0.27094-0.058-0.34835-0.17418-0.0774-0.15481-0.0774-0.29025 0-0.40639 1.3934-1.5869 2.632-2.7481 3.7158-3.4835 1.1225-0.73541 2.2062-1.1031 3.2513-1.1031 1.703 0 2.5546 0.94828 2.5546 2.8449 0 0.58058-0.0968 1.3547-0.29031 2.3224l-2.3804 12.599c-0.11613 0.58058-0.17417 1.0644-0.17417 1.4515 0 1.0064 0.32899 1.5095 0.987 1.5095 0.65799 0 1.7805-0.73541 3.3674-2.2062 0.0774-0.0774 0.15481-0.11614 0.23222-0.11614 0.11613 0 0.2129 0.0774 0.29031 0.23222 0.0774 0.11614 0.0581 0.23222-0.058 0.34835-1.316 1.5482-2.4965 2.69-3.5416 3.4255-1.045 0.69671-2.0901 1.0451-3.1352 1.0451z"/>
   <path d="m160.67 200.86q0.11613-0.11613 0.17417-0.11613 0.17418 0 0.29032 0.23221 0.17417 0.17418 0 0.34836-1.974 2.3223-3.4835 3.4255-1.5095 1.1031-3.1352 1.1031-1.2773 0-1.9159-0.75476-0.58059-0.75477-0.58059-2.2643 0-0.92894 0.29031-2.6707l1.6837-9.2313q0.29031-1.3934 0.29031-2.7868 0-3.019-2.032-3.019-1.7418 0-3.5996 2.2062-1.7998 2.2062-3.4255 6.4445-1.6256 4.1802-2.6707 10.044l-0.17417 0.92894q-0.29032 1.0451-2.7868 1.0451-1.7418 0-1.7418-0.40639l0.23222-1.2773q0.58059-2.7288 0.63865-3.0771l2.3804-12.947q0.11613-0.52253 0.11613-1.3354 0-1.6837-1.0451-1.6837-1.2773 0-3.5416 2.4385-0.058 0.058-0.17417 0.058-0.17418 0-0.34836-0.17418-0.11613-0.23222 0.058-0.40639 2.0321-2.3804 3.6577-3.4835 1.6837-1.1031 3.3094-1.1031 1.2773 0 1.8579 0.75477 0.63865 0.6967 0.63865 2.2062 0 0.46449-0.23222 2.2062l-1.045 5.8059q2.032-5.3414 4.7608-8.2443 2.7288-2.961 5.7478-2.961 3.8899 0 3.8899 4.7028 0 1.1031-0.29031 2.961l-1.9159 10.334q-0.17417 0.87089-0.17417 1.4515 0 1.5095 0.98699 1.5095 1.0451 0 3.3094-2.2643z"/>
   <path d="m184.88 181.7c0.0774-0.0774 0.15481-0.11614 0.23222-0.11614 0.11614 0 0.23222 0.0389 0.34835 0.11614 0.11614 0.0389 0.15482 0.0774 0.11614 0.11613l-6.8861 35.904c-0.81282 4.4125-6.7345 24.65-9.0568 27.049s-5.2059 3.5996-8.6508 3.5996c-1.974 0-3.5803-0.38703-4.8189-1.1612-1.2386-0.77411-1.8579-1.7805-1.8579-3.019 0-0.92893 0.27095-1.6256 0.81282-2.0901 0.50317-0.46449 1.1225-0.69671 1.8579-0.69671 0.69671 0 1.1805 0.19354 1.4515 0.58059 0.30968 0.42576 0.59995 1.0644 0.87088 1.9159 0.30968 1.0451 0.69672 1.8385 1.1612 2.3804 0.46449 0.58058 1.2966 0.87087 2.4965 0.87087 1.4708 0 2.7675-0.79346 3.8899-2.3804s6.4442-21.379 7.257-25.714l4.5638-23.537c-1.5482 3.2513-3.3868 5.8252-5.5156 7.7218-2.0901 1.8966-4.1222 2.8449-6.0962 2.8449-1.1999 0-2.1288-0.34835-2.7868-1.045-0.658-0.73541-0.987-1.8385-0.987-3.3094 0-2.6707 0.83218-5.5349 2.4965-8.5927 1.703-3.0965 3.7932-5.6898 6.2703-7.7799 2.5159-2.1288 4.8963-3.1932 7.1412-3.1932 0.73541 0 1.4515 0.13544 2.1482 0.40639 0.73541 0.23222 1.3547 0.59994 1.8579 1.1031 0.77412-0.65799 1.3354-1.316 1.6837-1.974zm-14.631 20.611c1.3934 0 2.8255-0.79347 4.2964-2.3804 1.5095-1.5869 2.7675-3.4835 3.7738-5.6898s1.5095-4.1028 1.5095-5.6898c0-1.1999-0.29032-2.1288-0.87089-2.7868-0.58058-0.6967-1.4128-1.0451-2.4965-1.0451-1.2386 0-2.4385 0.50317-3.5996 1.5095-1.1612 0.96764-2.1675 2.3224-3.019 4.0641-0.81282 1.703-1.3934 3.619-1.7418 5.7478-0.15481 0.92894-0.23221 1.8192-0.23221 2.6707 0 2.3998 0.79346 3.5996 2.3804 3.5996z"/>
  </g>
  <text x="183.20894" y="205.10135" fill="#2c2c2c" font-family="Cormorant" font-size="46.447px" stroke-width="1.4515" style="font-variant-caps:normal;font-variant-east-asian:normal;font-variant-ligatures:normal;font-variant-numeric:normal;line-height:1.25" xml:space="preserve"><tspan x="183.20894" y="205.10135" fill="#2c2c2c" font-family="Cormorant" font-size="46.447px" stroke-width="1.4515" style="font-variant-caps:normal;font-variant-east-asian:normal;font-variant-ligatures:normal;font-variant-numeric:normal">Slab</tspan></text>
 </g>
 <g transform="translate(229.11 72.843)">
  <g font-size="45.861px">
   <text x="-156.74997" y="9.2845669" fill="#2c2c2c" font-family="Cormorant" stroke-width="1.4515" style="font-variant-caps:normal;font-variant-east-asian:normal;font-variant-ligatures:normal;font-variant-numeric:normal;line-height:1.25" xml:space="preserve"><tspan x="-156.74997" y="9.2845669" fill="#2c2c2c" font-family="Cormorant" font-size="45.861px" stroke-width="1.4515" style="font-variant-caps:normal;font-variant-east-asian:normal;font-variant-ligatures:normal;font-variant-numeric:normal">The</tspan></text>
   <text x="-161.23434" y="78.811241" fill="#2c2c2c" font-family="Cormorant" stroke-width="1.4515" style="font-variant-caps:normal;font-variant-east-asian:normal;font-variant-ligatures:normal;font-variant-numeric:normal;line-height:1.25" xml:space="preserve"><tspan x="-161.23434" y="78.811241" fill="#2c2c2c" font-family="Cormorant" font-size="45.861px" stroke-width="1.4515" style="font-variant-caps:normal;font-variant-east-asian:normal;font-variant-ligatures:normal;font-variant-numeric:normal">Slab</tspan></text>
   <text x="-192.90698" y="40.159824" fill="#ab3219" font-family="'Cormorant Infant'" stroke="#450f04" stroke-opacity=".99608" stroke-width=".37" style="font-variant-caps:normal;font-variant-east-asian:normal;font-variant-ligatures:normal;font-variant-numeric:normal;line-height:1.25" xml:space="preserve"><tspan x="-192.90698" y="40.159824" fill="#ab3219" font-family="'Cormorant Infant'" font-size="45.861px" stroke="#450f04" stroke-opacity=".99608" stroke-width=".37" style="font-variant-caps:normal;font-variant-east-asian:normal;font-variant-ligatures:normal;font-variant-numeric:normal">Cutting</tspan></text>
  </g>
  <g transform="matrix(1.4368 0 0 1.4368 63.318 -9.652)" fill="none" stroke="#fff">
   <path d="m-186.61-1.237v14.123l14.123-14.123zm98.099 0 13.108 13.108v-13.108zm-98.099 46.463v13.532h13.532zm111.21 1.0144-12.518 12.518h12.518z" stroke-width=".95627"/>
   <rect transform="rotate(-45)" x="-163.93" y="-122.84" width="102.22" height="102.22" stroke-width="1.07"/>
  </g>
 </g>
</svg>
