<?xml version="1.0" encoding="UTF-8" standalone="no"?>
<!-- Created with Inkscape (http://www.inkscape.org/) -->

<svg
   width="150.78665mm"
   height="62.597607mm"
   viewBox="0 0 150.78665 62.597607"
   version="1.1"
   id="svg5"
   inkscape:version="1.1.2 (0a00cf5339, 2022-02-04)"
   sodipodi:docname="ChesapeakeBayOilOpt.svg"
   xmlns:inkscape="http://www.inkscape.org/namespaces/inkscape"
   xmlns:sodipodi="http://sodipodi.sourceforge.net/DTD/sodipodi-0.dtd"
   xmlns="http://www.w3.org/2000/svg"
   xmlns:svg="http://www.w3.org/2000/svg">
  <sodipodi:namedview
     id="namedview7"
     pagecolor="#adadad"
     bordercolor="#eeeeee"
     borderopacity="1"
     inkscape:pageshadow="0"
     inkscape:pageopacity="0"
     inkscape:pagecheckerboard="0"
     inkscape:document-units="mm"
     showgrid="false"
     showguides="true"
     inkscape:guide-bbox="true"
     inkscape:zoom="2.1215982"
     inkscape:cx="231.66498"
     inkscape:cy="187.12308"
     inkscape:window-width="2560"
     inkscape:window-height="1371"
     inkscape:window-x="1200"
     inkscape:window-y="883"
     inkscape:window-maximized="0"
     inkscape:current-layer="layer3"
     fit-margin-top="0"
     fit-margin-left="0"
     fit-margin-right="0"
     fit-margin-bottom="0" />
  <defs
     id="defs2">
    <inkscape:path-effect
       effect="fillet_chamfer"
       id="path-effect6741"
       is_visible="true"
       lpeversion="1"
       satellites_param="F,0,0,1,0,15.875,0,1 @ F,0,0,1,0,15.875,0,1 @ F,0,0,1,0,15.875,0,1 @ F,0,0,1,0,15.875,0,1"
       unit="px"
       method="auto"
       mode="F"
       radius="60"
       chamfer_steps="1"
       flexible="false"
       use_knot_distance="true"
       apply_no_radius="true"
       apply_with_radius="true"
       only_selected="false"
       hide_knots="false" />
    <inkscape:path-effect
       effect="simplify"
       id="path-effect6733"
       is_visible="true"
       lpeversion="1"
       steps="1"
       threshold="0.002"
       smooth_angles="0"
       helper_size="5"
       simplify_individual_paths="false"
       simplify_just_coalesce="false" />
    <inkscape:path-effect
       effect="fillet_chamfer"
       id="path-effect38983"
       is_visible="true"
       lpeversion="1"
       satellites_param="F,0,0,1,0,15.875,0,1 @ F,0,0,1,0,15.875,0,1 @ F,0,0,1,0,15.875,0,1 @ F,0,0,1,0,15.875,0,1"
       unit="px"
       method="auto"
       mode="F"
       radius="60"
       chamfer_steps="1"
       flexible="false"
       use_knot_distance="true"
       apply_no_radius="true"
       apply_with_radius="true"
       only_selected="false"
       hide_knots="false" />
    <inkscape:path-effect
       effect="fillet_chamfer"
       id="path-effect31508"
       is_visible="true"
       lpeversion="1"
       satellites_param="F,0,0,1,0,15.875,0,1 @ F,0,0,1,0,15.875,0,1 @ F,0,0,1,0,15.875,0,1 @ F,0,0,1,0,15.875,0,1"
       unit="px"
       method="auto"
       mode="F"
       radius="60"
       chamfer_steps="1"
       flexible="false"
       use_knot_distance="true"
       apply_no_radius="true"
       apply_with_radius="true"
       only_selected="false"
       hide_knots="false" />
    <inkscape:path-effect
       effect="fillet_chamfer"
       id="path-effect31508-9"
       is_visible="true"
       lpeversion="1"
       satellites_param="F,0,0,1,0,15.875,0,1 @ F,0,0,1,0,15.875,0,1 @ F,0,0,1,0,15.875,0,1 @ F,0,0,1,0,15.875,0,1"
       unit="px"
       method="auto"
       mode="F"
       radius="60"
       chamfer_steps="1"
       flexible="false"
       use_knot_distance="true"
       apply_no_radius="true"
       apply_with_radius="true"
       only_selected="false"
       hide_knots="false" />
  </defs>
  <g
     inkscape:label="Layer 1"
     inkscape:groupmode="layer"
     id="layer1"
     transform="translate(-26.460539,-141.97059)">
    <path
       id="rect31052"
       style="display:inline;fill:#4093de;fill-opacity:1;stroke:#ffffff;stroke-width:1.028;stroke-linecap:round;stroke-linejoin:round;stroke-miterlimit:4;stroke-dasharray:none"
       d="M 40.061995,142.90787 H 149.59404 a 19.905584,19.905584 38.572882 0 1 19.40673,15.47716 l 6.65458,29.1624 a 12.660549,12.660549 128.57288 0 1 -12.34327,15.47716 H 53.780035 A 19.905584,19.905584 38.572882 0 1 34.3733,187.54743 l -6.65457,-29.1624 a 12.660549,12.660549 128.57288 0 1 12.343265,-15.47716 z"
       inkscape:path-effect="#path-effect31508"
       inkscape:original-d="M 24.186995,142.90787 H 165.46904 l 13.71804,60.11672 H 37.905035 Z"
       sodipodi:nodetypes="ccccc"
       inkscape:label="Base Blue" />
    <path
       style="display:none;fill:none;stroke:#ffffff;stroke-width:0.77;stroke-linecap:butt;stroke-linejoin:miter;stroke-miterlimit:4;stroke-dasharray:none;stroke-opacity:1"
       d="M 31.333249,174.09439 H 172.60477"
       id="path31781"
       sodipodi:nodetypes="cc"
       sodipodi:insensitive="true"
       inkscape:label="White Divider" />
    <path
       style="display:inline;fill:#4775f5;fill-opacity:1;stroke:none;stroke-width:1.78145;stroke-linecap:round;stroke-linejoin:round;stroke-opacity:1"
       d="m 192.77921,765.35779 c -24.02705,-3.52471 -44.61586,-18.64546 -55.69582,-40.9039 -3.63374,-7.29979 -5.06994,-12.16891 -10.28805,-34.87937 -3.3356,-14.51736 -6.29996,-27.34966 -6.58746,-28.51624 l -0.52273,-2.12104 h 265.85531 c 146.22041,0 265.85529,0.13864 265.85529,0.30809 0,0.16945 2.75373,12.36544 6.11939,27.10221 4.40581,19.29114 6.12165,28.66002 6.12746,33.45749 0.0235,19.40927 -12.38898,36.66699 -31.648,44.00185 l -5.58001,2.12518 -213.98964,0.12773 c -119.10094,0.0711 -216.4977,-0.24019 -219.64574,-0.702 z"
       id="path35460"
       transform="scale(0.26458333)"
       sodipodi:insensitive="true"
       inkscape:label="Bottom Blue" />
    <path
       style="display:inline;fill:none;stroke:#ffffff;stroke-width:0.5;stroke-linecap:butt;stroke-linejoin:miter;stroke-miterlimit:4;stroke-dasharray:none;stroke-opacity:1"
       d="M 31.666695,174.34381 H 136.98946 c 0,0 5.12445,0.18125 6.33078,-0.48825 0.67602,-0.37518 1.83067,-0.68684 0.93083,-1.66995 -0.81879,-0.89456 0.77678,-0.54684 1.16032,0.44702 0.26712,0.69218 -1.0845,1.4177 -0.0964,1.3877 1.11383,-0.0338 1.56551,-0.31095 1.96581,-0.75168 1.02986,-1.13386 0.78519,-1.88013 0.21293,-2.58173 -0.76457,-0.93742 2.1382,0.56903 1.59994,1.82902 -0.53827,1.25999 -0.41535,1.70183 0.74621,1.44004 0.51427,-0.11591 0.81476,-0.30814 1.06791,-0.47495 0.46815,-0.30848 0.65251,-0.59783 0.76994,-0.89481 0.29082,-0.73545 -0.0857,-1.77255 -1.15176,-2.64589 -1.12585,-0.92231 2.55577,0.57424 2.49437,2.22512 -0.0352,0.94705 -0.54855,1.5399 0.49692,1.8652 0.45074,0.14025 1.44273,0.47793 3.15604,4.8e-4 0.48212,-0.13435 1.18539,-0.63571 1.68798,-0.63471 0.61172,0.002 1.24503,0.4517 1.84302,0.64571 0.63017,0.20444 1.08242,0.005 1.72764,0.007 5.11842,0.0196 10.67278,0.0454 10.67278,0.0454"
       id="path7216"
       sodipodi:nodetypes="ccsssssssssssssssssc"
       inkscape:label="Squiggly Divider" />
  </g>
  <g
     inkscape:groupmode="layer"
     id="layer3"
     inkscape:label="Layer 3">
    <path
       style="display:inline;fill:#4775f5;fill-opacity:1;stroke:none;stroke-width:0.629839;stroke-linejoin:round;stroke-miterlimit:4;stroke-dasharray:none;stroke-dashoffset:0;stroke-opacity:1"
       d="m 96.487362,226.7488 c -5.713305,-0.5723 -13.168175,-2.30776 -18.259828,-4.25081 -9.817984,-3.74668 -17.878819,-8.97848 -25.433232,-16.50716 -8.232167,-8.20412 -13.164993,-16.21594 -16.427321,-26.68098 -0.657156,-2.10806 -3.364153,-13.35659 -6.015547,-24.99673 -2.651395,-11.64014 -5.329428,-23.37911 -5.951185,-26.0866 l -1.130468,-4.92271 205.170049,0.0118 c 230.24402,0.0132 209.30703,0.25762 214.92146,-2.50904 3.6065,-1.77719 4.23868,-2.51743 3.99518,-4.67788 -0.16468,-1.46104 -0.14998,-1.4913 0.45731,-0.94168 0.85725,0.7758 0.78719,1.93133 -0.20574,3.39255 -1.07486,1.5818 -1.0638,2.57148 0.0369,3.29265 0.7737,0.50694 1.16625,0.52694 3.543,0.18053 3.24878,-0.47352 5.10687,-1.48237 6.8938,-3.74302 1.81046,-2.29042 2.49994,-4.24344 2.24824,-6.36858 -0.19724,-1.66544 -0.18684,-1.69232 0.43697,-1.12777 0.35149,0.31808 0.92952,1.1654 1.28454,1.88293 l 0.64545,1.3046 -0.80933,2.54857 c -0.93111,2.9321 -0.81936,4.09251 0.49413,5.13105 0.74714,0.59075 1.17228,0.67176 2.63382,0.50189 2.92552,-0.34001 5.35257,-1.44872 7.27788,-3.32462 2.64229,-2.57447 3.14863,-5.59721 1.48411,-8.85995 -0.98457,-1.92995 -0.84436,-1.98441 0.85372,-0.33158 2.39679,2.33295 2.56927,2.84699 2.29673,6.84542 l -0.2349,3.44609 0.98611,0.98612 c 1.00756,1.00755 2.40161,1.51262 5.71761,2.0715 3.44015,0.5798 8.30028,-0.2373 12.09812,-2.03398 1.15861,-0.54811 2.58676,-0.99669 3.17365,-0.99683 0.58686,-1.5e-4 2.29947,0.5416 3.80573,1.20388 l 2.73875,1.20414 21.5797,0.0457 c 11.86885,0.0251 21.6819,0.14783 21.80678,0.27266 0.49817,0.49801 12.16271,52.57562 12.52796,55.93235 1.5363,14.11976 -4.76961,29.35911 -15.83039,38.25706 -5.28331,4.2502 -10.74533,7.0101 -17.53287,8.85916 l -3.83284,1.04414 -213.13874,0.031 c -117.22632,0.0171 -213.663685,-0.0216 -214.305268,-0.0858 z"
       id="path27641"
       transform="scale(0.26458333)"
       inkscape:label="Bottom Squiggly Blue" />
    <text
       xml:space="preserve"
       style="font-style:normal;font-weight:normal;font-size:21.1667px;line-height:1.25;font-family:sans-serif;display:inline;fill:#ffffff;fill-opacity:1;stroke:none;stroke-width:0.543704"
       x="8.154048"
       y="23.52433"
       id="text6174"
       inkscape:label="Chesapeake"><tspan
         sodipodi:role="line"
         id="tspan6172"
         style="font-size:21.1667px;fill:#ffffff;fill-opacity:1;stroke-width:0.543704"
         x="8.154048"
         y="23.52433">Chesapeake</tspan></text>
    <text
       xml:space="preserve"
       style="font-style:normal;font-weight:normal;font-size:21.1667px;line-height:1.25;font-family:sans-serif;display:inline;fill:#ffffff;fill-opacity:1;stroke:none;stroke-width:0.264583"
       x="22.896759"
       y="51.85537"
       id="text15800"
       inkscape:label="BayOil"><tspan
         sodipodi:role="line"
         id="tspan15798"
         style="font-size:21.1667px;fill:#ffffff;fill-opacity:1;stroke-width:0.264583"
         x="22.896759"
         y="51.85537">BayOil.com</tspan></text>
  </g>
  <g
     inkscape:groupmode="layer"
     id="g6737"
     inkscape:label="Layer 2 copy"
     transform="translate(0.74470747,0.74609501)">
    <path
       id="path6735"
       style="fill:none;fill-opacity:1;stroke:#67331d;stroke-width:1.87457;stroke-linecap:round;stroke-linejoin:round;stroke-miterlimit:4;stroke-dasharray:none;stroke-dashoffset:0;stroke-opacity:1"
       d="M 13.190413,0.79750498 H 122.72245 A 19.905584,19.905584 38.572882 0 1 142.12918,16.274665 l 6.65458,29.1624 a 12.660549,12.660549 128.57288 0 1 -12.34327,15.47716 H 26.908453 A 19.905584,19.905584 38.572882 0 1 7.5017184,45.437065 L 0.84714756,16.274665 A 12.660549,12.660549 128.57288 0 1 13.190413,0.79750498 Z"
       inkscape:path-effect="#path-effect6741"
       inkscape:original-d="M -2.684587,0.79750498 H 138.59745 L 152.31549,60.914225 H 11.033453 Z"
       sodipodi:nodetypes="ccccc" />
  </g>
  <g
     inkscape:groupmode="layer"
     id="layer2"
     inkscape:label="Layer 2"
     transform="translate(0.74470747,0.74609501)">
    <path
       id="rect31052-6"
       style="fill:none;fill-opacity:1;stroke:#8f4528;stroke-width:1.87457;stroke-linecap:round;stroke-linejoin:round;stroke-miterlimit:4;stroke-dasharray:none;stroke-dashoffset:0;stroke-opacity:1"
       d="M 12.856749,0.19119 H 122.38879 a 19.905584,19.905584 38.572882 0 1 19.40673,15.47716 l 6.65458,29.1624 a 12.660549,12.660549 128.57288 0 1 -12.34327,15.47716 l -109.532041,0 A 19.905584,19.905584 38.572882 0 1 7.1680544,44.83075 L 0.51348356,15.66835 A 12.660549,12.660549 128.57288 0 1 12.856749,0.19119 Z"
       inkscape:path-effect="#path-effect31508-9"
       inkscape:original-d="M -3.018251,0.19119 H 138.26379 l 13.71804,60.11672 H 10.699789 Z"
       sodipodi:nodetypes="ccccc" />
  </g>
</svg>
